<?xml version="1.0" encoding="UTF-8"?> <svg xmlns="http://www.w3.org/2000/svg" xmlns:xlink="http://www.w3.org/1999/xlink" id="Layer_1" data-name="Layer 1" viewBox="0 0 733 280"><defs><style> .cls-1 { fill: none; } .cls-2 { fill: #fff; fill-rule: evenodd; } .cls-3 { clip-path: url(#clippath); } </style><clipPath id="clippath"><rect class="cls-1" y="0" width="733" height="280"></rect></clipPath></defs><g class="cls-3"><path class="cls-2" d="M364.3,0v45.5h53V0h-53ZM363.9,65.2v156.5h53.8V65.2h-53.8ZM530.9,64.3h14.2v49.6h-20.8c-9.5,0-16.3,2.2-20.6,6.7-4.2,4.4-6.3,11.6-6.3,21.4v79.7h-53.8V65.2h35.9l8.4,17.4c10.4-12.2,24.8-18.2,43.1-18.2l-.1-.1ZM675.1,65.2h57.9l-65.4,149.6c-10.8,24.3-22,41.3-33.6,50.7-11.6,9.6-27.3,14.5-47.2,14.5h-18.5v-46.4h14.7c10.2,0,17.5-1.6,22-4.9,4.4-3.3,8.5-10,12.2-20l-64.5-143.5h58.4l33,86.1,31-86.1h0ZM342.4,142c0,4.4-.4,9.2-1.2,14.2h-116.1c1.7,8.9,5.3,15.6,10.7,20.3,5.6,4.6,12.6,7,21.1,7s8.2-.6,11.9-1.7c3.7-1.2,6.8-2.8,9.6-4.9,2.9-2.3,5.2-5,7-8.1h53.5c-5.4,18-15.5,32.2-30.4,42.6-14.7,10.5-31.8,15.6-51.5,15.6s-44.6-7.9-60.8-23.8c-16-16.1-24-35.9-24-59.7s3.7-30.1,11-42.9c7.3-12.8,17.5-22.7,30.4-29.9s27.4-10.7,43.4-10.7,31.3,3.7,44.3,11c13.1,7.2,23.3,17,30.4,29.6,7.1,12.4,10.7,26.2,10.7,41.5h0v-.1ZM257.1,102.3c-7.7,0-14.3,2.1-19.7,6.4-5.2,4-9,10-11.3,17.7h63.4c-4.8-16.1-15.6-24-32.4-24v-.1ZM137.8,78.6c-10.8-12-25.3-18-43.4-18s-36.9,7-49.2,20.9l-7.5-16.3H0v156.5h53.8v-83.5c0-6.8,1-12.5,2.9-17.1,2.1-4.9,5.1-8.5,9-11,4-2.5,8.9-3.8,14.5-3.8,13.5,0,20.3,9.1,20.3,27.3v88.1h53.8v-95.4c0-19.9-5.5-35.9-16.5-47.8h0v.1Z"></path></g></svg> 