<svg width="131" height="66" viewBox="0 0 131 66" fill="none" xmlns="http://www.w3.org/2000/svg">
<path d="M2.00214 12.42H13.6501V47H8.08614V17.464H2.00214V12.42ZM34.6464 47.624C30.4517 47.624 27.1237 46.012 24.6624 42.788C22.201 39.564 20.9704 35.196 20.9704 29.684C20.9704 24.172 22.1837 19.8213 24.6104 16.632C27.0717 13.408 30.417 11.796 34.6464 11.796C38.841 11.796 42.1517 13.408 44.5784 16.632C47.0397 19.8213 48.2704 24.172 48.2704 29.684C48.2704 35.196 47.0397 39.564 44.5784 42.788C42.117 46.012 38.8064 47.624 34.6464 47.624ZM34.6464 42.32C37.1424 42.32 39.0837 41.2107 40.4704 38.992C41.8917 36.7733 42.6024 33.6707 42.6024 29.684C42.6024 27.0493 42.273 24.796 41.6144 22.924C40.9904 21.0173 40.0717 19.5787 38.8584 18.608C37.6797 17.6027 36.2757 17.1 34.6464 17.1C32.9824 17.1 31.5437 17.6027 30.3304 18.608C29.117 19.5787 28.1984 21.0173 27.5744 22.924C26.9504 24.796 26.6384 27.0493 26.6384 29.684C26.6384 33.6707 27.3317 36.7733 28.7184 38.992C30.1397 41.2107 32.1157 42.32 34.6464 42.32ZM63.5039 41.696H76.3999V47H52.7399V45.492C57.9053 39.8413 61.6319 35.6293 63.9199 32.856C66.2426 30.048 67.7853 27.916 68.5479 26.46C69.3106 25.004 69.6919 23.5653 69.6919 22.144C69.6919 21.1387 69.4666 20.2547 69.0159 19.492C68.5999 18.7293 67.9933 18.14 67.1959 17.724C66.4333 17.2733 65.5319 17.048 64.4919 17.048C62.8626 17.048 61.5453 17.5333 60.5399 18.504C59.5693 19.44 59.0839 20.6707 59.0839 22.196V22.976H53.4679V22.196C53.4679 19.076 54.4733 16.5627 56.4839 14.656C58.4946 12.7147 61.1466 11.744 64.4399 11.744C67.6639 11.744 70.2813 12.7147 72.2919 14.656C74.3373 16.5973 75.3599 19.0933 75.3599 22.144C75.3599 23.7387 75.0653 25.2813 74.4759 26.772C73.9213 28.2627 72.7773 30.1867 71.0439 32.544C69.3453 34.8667 66.8319 37.9173 63.5039 41.696Z" fill="white"/>
<path d="M91.2071 35.96C92.8204 35.96 94.1471 36.4933 95.1871 37.56C96.2404 38.6267 96.7671 39.9733 96.7671 41.6C96.7671 43.2133 96.2404 44.56 95.1871 45.64C94.1471 46.7067 92.8204 47.24 91.2071 47.24C89.5138 47.24 88.1271 46.6467 87.0471 45.46L86.8271 47H85.5071V32.34H87.2071V37.56C88.2604 36.4933 89.5938 35.96 91.2071 35.96ZM91.0671 45.6C91.8271 45.6 92.5071 45.4267 93.1071 45.08C93.7071 44.7333 94.1738 44.26 94.5071 43.66C94.8538 43.0467 95.0271 42.36 95.0271 41.6C95.0271 40.4533 94.6538 39.5 93.9071 38.74C93.1604 37.98 92.2138 37.6 91.0671 37.6C89.9338 37.6 88.9871 37.9867 88.2271 38.76C87.4671 39.52 87.0871 40.4667 87.0871 41.6C87.0871 42.04 87.1471 42.4667 87.2671 42.88C87.4004 43.2933 87.5871 43.6667 87.8271 44C88.0671 44.32 88.3471 44.6 88.6671 44.84C89.0004 45.08 89.3671 45.2667 89.7671 45.4C90.1804 45.5333 90.6138 45.6 91.0671 45.6ZM105.075 35.96C106.688 35.96 108.015 36.4933 109.055 37.56C110.108 38.6267 110.635 39.9733 110.635 41.6C110.635 43.2133 110.108 44.56 109.055 45.64C108.015 46.7067 106.688 47.24 105.075 47.24C103.448 47.24 102.108 46.68 101.055 45.56V50.86H99.3548V36.2H100.515L100.855 37.86C101.361 37.26 101.975 36.7933 102.695 36.46C103.428 36.1267 104.221 35.96 105.075 35.96ZM104.955 45.6C106.101 45.6 107.048 45.22 107.795 44.46C108.541 43.7 108.915 42.7467 108.915 41.6C108.915 40.4533 108.541 39.5 107.795 38.74C107.048 37.98 106.101 37.6 104.955 37.6C103.808 37.6 102.855 37.9867 102.095 38.76C101.348 39.52 100.975 40.4667 100.975 41.6C100.975 42.3467 101.141 43.0267 101.475 43.64C101.821 44.2533 102.301 44.7333 102.915 45.08C103.528 45.4267 104.208 45.6 104.955 45.6ZM125.142 35.96C125.902 35.96 126.569 36.14 127.142 36.5C127.715 36.8467 128.155 37.3333 128.462 37.96C128.782 38.5867 128.942 39.3 128.942 40.1V47H127.242V40.62C127.242 39.98 127.142 39.4267 126.942 38.96C126.755 38.4933 126.475 38.14 126.102 37.9C125.742 37.6467 125.309 37.52 124.802 37.52C124.015 37.52 123.335 37.86 122.762 38.54C122.202 39.2067 121.922 40.0333 121.922 41.02V47H120.262V40.62C120.262 39.6467 120.042 38.8867 119.602 38.34C119.175 37.7933 118.575 37.52 117.802 37.52C117.415 37.52 117.042 37.6133 116.682 37.8C116.335 37.9733 116.029 38.2133 115.762 38.52C115.509 38.8267 115.302 39.2 115.142 39.64C114.995 40.0667 114.922 40.5267 114.922 41.02V47H113.222V36.2H114.442L114.722 37.68C114.922 37.4133 115.149 37.1733 115.402 36.96C115.669 36.7467 115.949 36.5667 116.242 36.42C116.535 36.2733 116.849 36.16 117.182 36.08C117.515 36 117.849 35.96 118.182 35.96C118.942 35.96 119.609 36.1467 120.182 36.52C120.755 36.88 121.189 37.38 121.482 38.02C121.749 37.5933 122.075 37.2267 122.462 36.92C122.849 36.6133 123.269 36.38 123.722 36.22C124.189 36.0467 124.662 35.96 125.142 35.96Z" fill="#999999"/>
</svg>
