<svg width="177" height="48" viewBox="0 0 177 48" fill="none" xmlns="http://www.w3.org/2000/svg">
<rect width="177" height="48" rx="24" fill="#303030"/>
<path d="M55 30H66M48 30H51M51 30V32M51 30V28M65 24H66M48 24H61M61 24V26M61 24V22M59 18H66M48 18H55M55 18V20M55 18V16" stroke="white" stroke-width="2" stroke-linecap="round" stroke-linejoin="round"/>
<path d="M77.7524 28.154C77.0151 28.154 76.3664 28.0233 75.8064 27.762C75.2558 27.5007 74.8264 27.1273 74.5184 26.642C74.2104 26.1473 74.0564 25.5733 74.0564 24.92H75.6804C75.6804 25.4427 75.8718 25.858 76.2544 26.166C76.6464 26.4647 77.1411 26.614 77.7384 26.614C78.2798 26.614 78.7371 26.4833 79.1104 26.222C79.4838 25.9513 79.6704 25.6013 79.6704 25.172C79.6704 25.0133 79.6424 24.8687 79.5864 24.738C79.5398 24.6073 79.4558 24.4953 79.3344 24.402C79.2224 24.3087 79.1104 24.2293 78.9984 24.164C78.8958 24.0893 78.7371 24.0193 78.5224 23.954C78.3171 23.8887 78.1491 23.842 78.0184 23.814C77.8878 23.7767 77.6918 23.7253 77.4304 23.66C77.1411 23.5947 76.9218 23.5433 76.7724 23.506C76.6231 23.4593 76.4131 23.394 76.1424 23.31C75.8811 23.2167 75.6758 23.128 75.5264 23.044C75.3864 22.96 75.2184 22.848 75.0224 22.708C74.8264 22.5587 74.6771 22.4047 74.5744 22.246C74.4811 22.078 74.3971 21.8773 74.3224 21.644C74.2478 21.4107 74.2104 21.1493 74.2104 20.86C74.2104 19.9827 74.5184 19.2967 75.1344 18.802C75.7598 18.3073 76.5951 18.06 77.6404 18.06C78.7044 18.06 79.5351 18.3307 80.1324 18.872C80.7298 19.404 81.0284 20.132 81.0284 21.056H79.4324C79.4324 20.5893 79.2598 20.2253 78.9144 19.964C78.5784 19.6933 78.1444 19.558 77.6124 19.558C77.0991 19.558 76.6698 19.67 76.3244 19.894C75.9884 20.1087 75.8204 20.412 75.8204 20.804C75.8204 20.972 75.8624 21.126 75.9464 21.266C76.0304 21.406 76.1284 21.5227 76.2404 21.616C76.3524 21.7 76.5204 21.784 76.7444 21.868C76.9684 21.952 77.1551 22.0173 77.3044 22.064C77.4631 22.1013 77.6918 22.1573 77.9904 22.232C78.2238 22.288 78.3964 22.33 78.5084 22.358C78.6298 22.386 78.8024 22.4373 79.0264 22.512C79.2504 22.5773 79.4231 22.638 79.5444 22.694C79.6658 22.7407 79.8198 22.8107 80.0064 22.904C80.1931 22.9973 80.3378 23.0907 80.4404 23.184C80.5431 23.2773 80.6551 23.394 80.7764 23.534C80.9071 23.674 81.0051 23.8233 81.0704 23.982C81.1358 24.1313 81.1918 24.3087 81.2384 24.514C81.2851 24.71 81.3084 24.92 81.3084 25.144C81.3084 26.096 80.9724 26.838 80.3004 27.37C79.6284 27.8927 78.7791 28.154 77.7524 28.154ZM90.2187 24.234C90.2187 24.374 90.2093 24.5467 90.1907 24.752H84.0587C84.152 25.3587 84.404 25.8393 84.8147 26.194C85.2347 26.5487 85.7527 26.726 86.3687 26.726C86.6673 26.726 86.9473 26.684 87.2087 26.6C87.47 26.5067 87.6987 26.3807 87.8947 26.222C88.1 26.054 88.268 25.8533 88.3987 25.62H90.0367C89.738 26.4227 89.262 27.0527 88.6087 27.51C87.9553 27.958 87.2087 28.182 86.3687 28.182C85.258 28.182 84.3293 27.804 83.5827 27.048C82.8453 26.292 82.4767 25.3493 82.4767 24.22C82.4767 23.0907 82.8453 22.148 83.5827 21.392C84.3293 20.636 85.258 20.258 86.3687 20.258C87.1247 20.258 87.7967 20.44 88.3847 20.804C88.9727 21.1587 89.4253 21.6393 89.7427 22.246C90.06 22.8433 90.2187 23.506 90.2187 24.234ZM86.3687 21.658C85.79 21.658 85.2953 21.8213 84.8847 22.148C84.4833 22.4747 84.2173 22.9227 84.0867 23.492H88.6647C88.5713 23.1093 88.4173 22.7827 88.2027 22.512C87.988 22.232 87.722 22.022 87.4047 21.882C87.0967 21.7327 86.7513 21.658 86.3687 21.658ZM95.147 26.586H96.001V28H94.853C94.3023 28 93.8263 27.8927 93.425 27.678C93.0237 27.4633 92.7157 27.1553 92.501 26.754C92.2863 26.3433 92.179 25.8627 92.179 25.312V21.77H90.821V21.476L93.453 18.676H93.719V20.44H95.959V21.77H93.733V25.186C93.733 25.634 93.8543 25.9793 94.097 26.222C94.3397 26.4647 94.6897 26.586 95.147 26.586ZM100.889 26.586H101.743V28H100.595C100.045 28 99.5685 27.8927 99.1672 27.678C98.7658 27.4633 98.4578 27.1553 98.2432 26.754C98.0285 26.3433 97.9212 25.8627 97.9212 25.312V21.77H96.5632V21.476L99.1952 18.676H99.4612V20.44H101.701V21.77H99.4752V25.186C99.4752 25.634 99.5965 25.9793 99.8392 26.222C100.082 26.4647 100.432 26.586 100.889 26.586ZM103.229 19.264V17.668H104.839V19.264H103.229ZM103.257 28V20.44H104.811V28H103.257ZM111.021 20.272C111.898 20.272 112.594 20.566 113.107 21.154C113.63 21.742 113.891 22.5073 113.891 23.45V28H112.337V23.758C112.337 23.0767 112.188 22.5587 111.889 22.204C111.6 21.84 111.17 21.658 110.601 21.658C110.013 21.658 109.528 21.8727 109.145 22.302C108.762 22.7313 108.571 23.282 108.571 23.954V28H107.017V20.44H108.095L108.403 21.49C108.692 21.1073 109.061 20.8087 109.509 20.594C109.966 20.3793 110.47 20.272 111.021 20.272ZM122.188 20.44H123.21V27.006C123.21 27.8087 123.056 28.4993 122.748 29.078C122.449 29.666 122.015 30.114 121.446 30.422C120.876 30.7393 120.204 30.898 119.43 30.898C118.468 30.898 117.661 30.66 117.008 30.184C116.354 29.7173 115.93 29.064 115.734 28.224H117.288C117.428 28.6347 117.694 28.952 118.086 29.176C118.487 29.4 118.93 29.512 119.416 29.512C120.088 29.512 120.634 29.3067 121.054 28.896C121.474 28.4853 121.684 27.9253 121.684 27.216V26.88C120.984 27.4773 120.148 27.776 119.178 27.776C118.132 27.776 117.246 27.4167 116.518 26.698C115.799 25.97 115.44 25.0787 115.44 24.024C115.44 22.9693 115.799 22.078 116.518 21.35C117.246 20.622 118.132 20.258 119.178 20.258C120.288 20.258 121.208 20.6453 121.936 21.42L122.188 20.44ZM119.36 26.334C119.686 26.334 119.994 26.278 120.284 26.166C120.573 26.0447 120.82 25.886 121.026 25.69C121.231 25.4847 121.39 25.2373 121.502 24.948C121.623 24.6587 121.684 24.3507 121.684 24.024C121.684 23.352 121.464 22.7967 121.026 22.358C120.587 21.9193 120.032 21.7 119.36 21.7C118.688 21.7 118.128 21.924 117.68 22.372C117.241 22.8107 117.022 23.3613 117.022 24.024C117.022 24.6867 117.241 25.2373 117.68 25.676C118.128 26.1147 118.688 26.334 119.36 26.334ZM127.939 28.182C127.015 28.182 126.273 27.9487 125.713 27.482C125.153 27.0153 124.864 26.39 124.845 25.606H126.371C126.39 25.9887 126.544 26.2873 126.833 26.502C127.132 26.7073 127.519 26.81 127.995 26.81C128.275 26.81 128.523 26.7727 128.737 26.698C128.961 26.6233 129.139 26.5113 129.269 26.362C129.4 26.2127 129.465 26.0353 129.465 25.83C129.465 25.69 129.433 25.5687 129.367 25.466C129.302 25.354 129.223 25.2653 129.129 25.2C129.036 25.1347 128.901 25.074 128.723 25.018C128.555 24.962 128.401 24.92 128.261 24.892C128.131 24.864 127.953 24.8313 127.729 24.794C127.496 24.7567 127.309 24.724 127.169 24.696C127.029 24.668 126.852 24.626 126.637 24.57C126.423 24.5047 126.245 24.4393 126.105 24.374C125.975 24.2993 125.83 24.206 125.671 24.094C125.513 23.982 125.387 23.856 125.293 23.716C125.209 23.576 125.135 23.408 125.069 23.212C125.013 23.0067 124.985 22.7827 124.985 22.54C124.985 21.8587 125.251 21.308 125.783 20.888C126.325 20.468 127.034 20.258 127.911 20.258C128.789 20.258 129.493 20.4773 130.025 20.916C130.557 21.3547 130.828 21.9427 130.837 22.68H129.367C129.358 22.3253 129.223 22.0547 128.961 21.868C128.7 21.672 128.341 21.574 127.883 21.574C127.454 21.574 127.113 21.658 126.861 21.826C126.609 21.994 126.483 22.2133 126.483 22.484C126.483 22.596 126.502 22.694 126.539 22.778C126.577 22.862 126.637 22.9367 126.721 23.002C126.815 23.0673 126.899 23.1233 126.973 23.17C127.057 23.2073 127.179 23.2447 127.337 23.282C127.496 23.3193 127.627 23.3473 127.729 23.366C127.832 23.3847 127.981 23.408 128.177 23.436C128.429 23.4827 128.616 23.52 128.737 23.548C128.868 23.5667 129.05 23.6087 129.283 23.674C129.517 23.73 129.699 23.7907 129.829 23.856C129.96 23.9213 130.109 24.0147 130.277 24.136C130.455 24.248 130.585 24.3787 130.669 24.528C130.763 24.668 130.842 24.8453 130.907 25.06C130.973 25.2747 131.005 25.508 131.005 25.76C131.005 26.4973 130.725 27.0853 130.165 27.524C129.605 27.9627 128.863 28.182 127.939 28.182Z" fill="white"/>
</svg>
